<svg width="34" height="34" viewBox="0 0 34 34" fill="none" xmlns="http://www.w3.org/2000/svg">
<path d="M24.0132 6.24915L27.7508 9.98507L24.0132 6.24915ZM26.4167 2.95794L16.3101 13.0645C15.7879 13.586 15.4318 14.2504 15.2866 14.9739L14.3531 19.6469L19.0261 18.7116C19.7496 18.5669 20.4131 18.2122 20.9355 17.6899L31.0421 7.58328C31.3458 7.27958 31.5867 6.91903 31.751 6.52222C31.9154 6.12541 32 5.70011 32 5.27061C32 4.84111 31.9154 4.41581 31.751 4.019C31.5867 3.62219 31.3458 3.26164 31.0421 2.95794C30.7384 2.65424 30.3778 2.41332 29.981 2.24896C29.5842 2.0846 29.1589 2 28.7294 2C28.2999 2 27.8746 2.0846 27.4778 2.24896C27.081 2.41332 26.7204 2.65424 26.4167 2.95794V2.95794Z" stroke="black" stroke-width="2.5" stroke-linecap="round" stroke-linejoin="round"/>
<path d="M28.4709 23.1764V28.4706C28.4709 29.4066 28.099 30.3044 27.4371 30.9663C26.7752 31.6282 25.8775 32 24.9414 32H5.52945C4.59338 32 3.69565 31.6282 3.03375 30.9663C2.37185 30.3044 2 29.4066 2 28.4706V9.05859C2 8.12252 2.37185 7.2248 3.03375 6.5629C3.69565 5.901 4.59338 5.52914 5.52945 5.52914H10.8236" stroke="black" stroke-width="2.5" stroke-linecap="round" stroke-linejoin="round"/>
</svg>
